<?xml version="1.0" standalone="no"?>
<!DOCTYPE svg PUBLIC "-//W3C//DTD SVG 20010904//EN"
 "http://www.w3.org/TR/2001/REC-SVG-20010904/DTD/svg10.dtd">
<svg version="1.0" xmlns="http://www.w3.org/2000/svg"
 width="500.000000pt" height="500.000000pt" viewBox="0 0 500.000000 500.000000"
 preserveAspectRatio="xMidYMid meet">
<metadata>
Created by potrace 1.14, written by Peter Selinger 2001-2017
</metadata>
<g transform="translate(0.000000,500.000000) scale(0.100000,-0.100000)"
fill="#000000" stroke="none">
<path d="M2282 4038 c-15 -15 -16 -38 -2 -38 6 0 10 -7 10 -15 0 -8 8 -15 17
-15 9 0 14 -3 10 -6 -6 -6 1 -17 36 -55 9 -10 17 -22 17 -25 0 -4 13 -19 29
-35 16 -15 27 -30 24 -33 -3 -3 2 -8 11 -12 9 -3 16 -11 16 -18 0 -6 18 -30
40 -54 22 -24 40 -47 40 -52 0 -6 7 -10 17 -10 9 0 14 -3 11 -6 -8 -7 35 -51
45 -47 4 2 7 -1 7 -7 0 -6 4 -9 9 -5 5 3 12 1 15 -3 11 -18 66 -11 80 9 22 32
0 72 -91 165 -44 45 -78 86 -75 89 4 4 2 5 -3 4 -9 -3 -51 30 -122 99 -13 12
-27 22 -32 22 -4 0 -17 9 -30 21 -12 12 -25 18 -28 15 -4 -3 -14 1 -23 9 -13
11 -19 12 -28 3z"/>
<path d="M3622 3956 c-4 -47 -32 -138 -46 -148 -5 -3 -11 -14 -12 -24 -2 -9
-9 -21 -16 -25 -7 -5 -9 -9 -5 -9 4 0 -4 -17 -18 -37 -14 -21 -25 -41 -25 -46
0 -9 -7 -17 -77 -94 -28 -31 -50 -60 -47 -65 3 -4 1 -8 -5 -8 -5 0 -8 -8 -6
-17 2 -10 4 -25 4 -34 1 -14 41 -34 61 -32 35 5 50 12 78 37 18 16 40 43 48
60 9 17 24 45 32 61 16 30 20 44 24 78 1 9 5 17 9 17 6 0 21 52 25 90 1 8 3
17 4 20 13 37 14 122 1 181 -2 10 -28 6 -29 -5z"/>
<path d="M1138 3938 c-40 -14 -41 -34 -1 -70 19 -18 50 -48 67 -67 17 -19 47
-51 66 -71 19 -21 53 -59 75 -85 22 -26 50 -58 63 -71 13 -13 19 -24 15 -24
-4 -1 3 -10 17 -21 14 -12 25 -25 25 -30 0 -4 26 -33 57 -64 40 -38 70 -58 95
-63 110 -23 140 70 59 188 -38 56 -188 210 -205 210 -7 0 -9 5 -6 10 3 6 -1
10 -10 10 -8 0 -18 7 -21 15 -4 8 -10 13 -14 10 -4 -3 -11 2 -14 11 -3 8 -10
12 -16 9 -5 -3 -10 -1 -10 5 0 6 -15 18 -32 26 -18 8 -52 25 -75 39 -24 13
-43 21 -43 18 0 -3 -6 -1 -12 4 -7 5 -20 9 -28 8 -8 0 -17 2 -20 6 -3 3 -17 2
-32 -3z"/>
<path d="M3730 3252 c0 -5 -15 -13 -32 -16 -18 -3 -44 -8 -58 -11 -67 -14 -98
-18 -137 -19 -24 0 -43 -3 -43 -6 0 -3 -10 -6 -22 -6 -32 -1 -98 -13 -109 -20
-5 -3 -28 -7 -52 -9 -23 -2 -58 -7 -77 -10 -19 -3 -53 -7 -75 -9 -22 -3 -62
-7 -90 -11 -79 -11 -90 -11 -97 0 -5 6 -8 6 -8 0 0 -6 -48 -10 -125 -10 -69 0
-125 -3 -125 -8 0 -4 -6 -5 -12 0 -18 12 -108 10 -108 -2 0 -6 -3 -5 -8 1 -7
11 -172 14 -172 4 0 -3 -12 -6 -27 -7 -81 -2 -194 -13 -204 -19 -6 -3 -15 0
-20 7 -6 10 -11 11 -16 3 -8 -10 -291 -11 -413 -2 -25 2 -53 0 -62 -4 -10 -5
-19 -4 -23 2 -4 6 -10 8 -14 6 -7 -5 -121 -16 -188 -19 -18 -1 -33 -4 -33 -7
0 -3 -18 -5 -40 -4 -22 0 -40 -3 -40 -7 0 -5 -6 -6 -14 -3 -8 3 -24 1 -35 -6
-16 -8 -21 -8 -21 1 0 8 -5 8 -16 -2 -13 -10 -17 -10 -24 1 -5 8 -6 18 -4 22
3 4 1 8 -4 8 -5 0 -8 14 -7 31 2 23 -1 29 -12 25 -8 -3 -17 -6 -19 -6 -2 0 -4
-7 -4 -15 0 -8 -5 -15 -12 -15 -6 0 -8 -3 -5 -7 4 -3 3 -11 -2 -17 -10 -13
-79 -139 -80 -146 -2 -20 -25 -70 -32 -70 -5 0 -9 -7 -9 -15 0 -7 -8 -19 -17
-24 -10 -6 -14 -11 -10 -11 5 0 2 -6 -5 -14 -7 -7 -20 -24 -28 -36 -8 -12 -20
-28 -25 -34 -6 -6 -22 -34 -38 -63 -22 -42 -25 -56 -17 -78 10 -27 40 -63 40
-48 0 4 4 2 9 -5 6 -11 15 -10 44 4 20 10 34 21 31 26 -3 4 0 8 6 8 9 0 74 95
75 110 1 3 7 16 15 30 8 14 15 31 16 39 2 8 8 17 14 21 7 4 11 10 11 14 -1 3
-1 7 0 9 2 8 10 38 19 79 12 51 27 68 59 71 12 1 21 4 21 7 0 3 15 6 33 7 134
7 175 10 184 16 7 4 14 3 18 -3 4 -6 12 -7 18 -3 13 9 217 12 217 3 0 -3 11
-5 24 -5 13 0 22 3 19 8 -2 4 1 7 6 7 6 0 11 -3 11 -7 0 -5 93 -7 207 -6 115
1 208 2 208 3 0 1 29 3 202 14 40 2 77 8 84 12 7 4 9 3 5 -4 -4 -7 2 -8 21 -4
36 9 85 9 101 -1 6 -5 12 -5 12 0 0 10 201 10 218 0 6 -5 12 -4 12 2 0 9 44 6
62 -5 4 -3 8 -1 8 3 0 5 25 9 55 8 30 0 55 -4 55 -9 0 -4 6 -3 14 3 8 7 39 14
68 17 29 2 69 7 88 10 19 3 54 7 78 10 24 2 73 11 110 20 37 9 74 17 82 18 9
1 21 5 27 9 6 4 14 3 18 -3 4 -6 12 -7 18 -3 19 12 82 11 93 -1 17 -19 14 -26
-41 -90 -11 -13 -18 -33 -19 -58 0 -10 -3 -18 -7 -18 -4 0 -10 -17 -14 -37 -4
-21 -11 -44 -17 -50 -6 -7 -8 -13 -4 -13 3 0 1 -12 -5 -27 -6 -16 -13 -44 -16
-63 -2 -19 -6 -41 -9 -49 -3 -10 2 -9 18 5 28 24 158 154 153 154 -1 0 11 15
29 34 34 38 115 191 131 249 2 4 4 8 5 10 2 1 4 19 5 41 1 28 -4 45 -22 64
-12 14 -23 21 -23 17 0 -4 -7 -2 -15 5 -9 7 -15 8 -15 2z"/>
<path d="M2183 2703 c6 -9 -13 -12 -70 -12 -43 0 -80 0 -83 -1 -3 -1 -36 -3
-75 -4 -38 -2 -70 -5 -70 -6 0 -1 -18 -3 -40 -5 -112 -11 -193 -25 -254 -45
-30 -10 -59 -16 -63 -14 -4 3 -8 0 -8 -6 0 -6 -3 -9 -8 -6 -4 2 -16 -2 -27
-10 -10 -8 -14 -14 -8 -14 7 0 14 4 17 9 3 5 19 7 36 6 16 -1 30 2 30 7 0 5 9
4 20 -2 15 -8 20 -8 20 2 0 9 3 9 12 0 7 -7 17 -8 30 -1 12 6 18 6 18 0 0 -7
9 -7 25 -1 18 7 25 6 25 -3 0 -7 3 -8 8 -2 8 12 72 14 72 2 0 -4 8 -3 18 2 11
6 24 6 32 1 9 -5 19 -5 26 1 8 6 14 7 18 0 4 -6 18 -6 36 -1 17 5 30 6 30 2 0
-8 111 -12 357 -15 90 -1 163 -6 163 -11 0 -5 7 -3 16 5 9 7 18 9 22 3 4 -5
56 -9 115 -9 60 0 111 -3 113 -6 2 -4 15 -5 30 -3 14 1 23 0 20 -3 -3 -3 -1
-13 4 -23 6 -12 3 -21 -11 -33 -10 -9 -23 -17 -28 -17 -5 0 -12 -7 -15 -16 -4
-9 -9 -14 -12 -11 -3 3 -14 -2 -23 -11 -31 -30 -75 -62 -85 -62 -5 0 -15 -8
-22 -17 -7 -10 -16 -18 -21 -18 -4 0 -23 -15 -41 -33 -18 -18 -37 -30 -43 -27
-5 4 -9 2 -9 -4 0 -20 -35 2 -80 50 -54 58 -83 67 -86 27 -2 -16 0 -28 4 -28
8 0 13 -22 16 -67 0 -11 5 -19 10 -15 5 3 7 -2 3 -11 -3 -10 -3 -17 1 -17 5 0
7 -13 6 -30 -1 -16 1 -30 5 -30 4 0 8 -7 8 -15 0 -8 -5 -15 -11 -15 -5 0 -1
-7 10 -15 13 -10 14 -14 5 -15 -11 0 -11 -3 -1 -15 6 -8 9 -19 5 -25 -3 -5 -2
-10 3 -10 6 0 10 -6 9 -12 -1 -41 4 -59 16 -52 9 5 9 4 0 -6 -9 -9 -8 -21 2
-50 7 -21 12 -50 11 -64 -2 -14 1 -23 5 -20 5 3 7 -5 6 -18 -2 -13 -8 -23 -13
-23 -5 -1 -20 -7 -33 -14 -18 -10 -22 -10 -16 0 6 9 4 10 -6 3 -8 -5 -25 -10
-39 -11 -14 -1 -45 -4 -70 -7 -78 -10 -143 -16 -197 -20 -28 -2 -56 -7 -62
-10 -6 -4 -11 -2 -11 4 0 6 -4 9 -9 6 -5 -3 -26 -8 -47 -12 -87 -13 -100 -15
-124 -19 -14 -2 -41 -6 -60 -9 -38 -6 -103 -16 -135 -22 -11 -2 -35 -6 -54 -9
-19 -3 -40 -10 -47 -16 -9 -7 -14 -8 -14 -1 0 7 -13 7 -40 0 -22 -6 -37 -15
-34 -20 3 -5 12 -4 20 3 8 6 14 7 14 2 0 -9 65 -14 228 -16 54 -1 92 -6 92
-12 0 -7 3 -7 8 0 8 11 112 14 112 3 0 -4 6 -5 13 -3 27 10 87 12 87 2 0 -5 7
-4 15 3 8 7 15 8 15 3 0 -11 70 -10 88 1 7 4 12 4 12 -1 0 -4 11 -8 25 -8 14
0 25 3 25 6 0 8 32 5 47 -4 6 -4 14 -3 18 3 4 7 12 7 26 0 10 -6 19 -7 19 -2
0 10 46 10 56 -1 4 -3 14 -3 23 1 36 17 106 0 97 -24 -3 -7 0 -15 7 -17 9 -3
8 -9 -3 -22 -9 -11 -10 -16 -2 -11 11 7 17 -5 13 -28 -1 -4 4 -14 10 -22 9
-11 8 -14 -2 -14 -9 0 -10 -3 -4 -8 12 -8 17 -26 19 -67 1 -17 5 -35 9 -42 4
-6 7 -22 6 -34 0 -13 2 -35 6 -49 11 -40 7 -61 -14 -82 -12 -10 -21 -14 -21
-8 0 7 -6 10 -12 7 -7 -2 -21 0 -31 5 -10 5 -27 11 -38 14 -10 2 -29 7 -41 10
-13 3 -29 6 -35 6 -7 1 -13 4 -13 8 0 4 -6 7 -12 7 -105 7 -116 6 -140 -21
-19 -20 -17 -68 2 -74 5 -2 10 -10 10 -18 0 -9 4 -13 9 -10 4 3 19 -3 31 -14
13 -11 29 -20 37 -20 7 0 13 -4 13 -10 0 -5 3 -9 8 -8 15 3 82 -15 82 -23 0
-4 9 -6 20 -4 11 2 20 -1 20 -7 0 -6 3 -8 6 -5 4 3 16 1 28 -5 19 -10 56 -18
94 -21 6 0 12 -4 12 -8 0 -10 149 -9 156 2 3 5 11 6 17 3 7 -4 9 -4 5 1 -4 4
0 14 10 21 9 7 17 25 18 41 0 16 4 34 8 41 4 7 2 12 -4 12 -6 0 -8 5 -5 10 4
6 1 17 -5 25 -9 11 -9 15 -1 15 9 0 9 5 1 20 -6 11 -8 20 -4 20 3 0 1 6 -5 14
-9 11 -9 15 1 19 11 4 10 6 0 6 -7 1 -10 6 -7 11 3 6 1 10 -4 10 -6 0 -11 5
-11 11 0 5 5 7 11 3 7 -4 6 3 -2 17 -7 13 -14 46 -16 74 -2 27 -8 52 -14 55
-5 4 -7 14 -3 23 3 10 1 17 -6 17 -6 0 -8 5 -5 10 4 6 1 17 -5 25 -10 12 -10
15 1 15 11 0 11 2 -1 10 -8 5 -10 10 -5 10 6 0 3 5 -5 10 -11 7 -11 10 -2 10
8 0 10 5 6 12 -12 18 -12 48 -2 54 5 4 35 8 66 9 31 2 65 7 75 10 10 5 17 2
17 -5 0 -8 4 -9 13 -3 15 11 67 10 86 -2 9 -5 12 -4 8 2 -4 7 7 11 31 12 68 1
227 9 227 11 0 1 21 3 48 4 26 1 47 -2 47 -7 0 -4 6 -5 13 0 6 4 23 8 37 9 28
2 172 13 238 19 192 18 197 43 29 150 -17 11 -28 14 -23 7 5 -9 -1 -10 -26 -5
-75 16 -657 0 -745 -21 -14 -3 -23 0 -23 7 0 7 -4 6 -10 -3 -5 -8 -12 -12 -15
-8 -3 3 -22 2 -41 -2 -20 -5 -37 -4 -40 2 -3 5 -11 4 -19 -2 -19 -16 -45 0
-61 39 -7 18 -9 29 -4 26 15 -9 12 2 -6 19 -10 11 -11 16 -3 16 7 0 5 8 -7 22
-12 13 -13 18 -4 13 13 -8 13 -7 1 8 -7 9 -10 17 -6 17 4 0 2 6 -4 14 -6 7 -8
22 -4 31 5 14 3 16 -7 10 -10 -6 -12 -4 -7 8 3 10 2 17 -2 17 -5 0 -12 7 -15
16 -3 8 -2 12 3 9 5 -3 3 8 -5 25 -9 16 -13 39 -9 49 6 21 50 39 102 43 17 1
30 5 28 8 -4 7 96 45 108 42 5 -2 6 2 2 8 -3 5 1 10 9 10 9 0 16 5 16 12 0 6
3 8 6 5 7 -7 63 29 76 48 4 5 8 6 8 1 0 -5 11 3 25 18 13 14 27 26 31 26 10 0
115 113 110 118 -3 2 -1 15 5 29 10 26 -14 88 -31 78 -5 -3 -11 4 -15 15 -3
11 -9 19 -13 19 -4 -1 -9 0 -12 1 -12 4 -72 17 -115 24 -11 2 -20 4 -20 6 0 5
-95 11 -222 13 -79 1 -143 6 -143 10 0 5 -5 5 -11 1 -19 -11 -243 -11 -258 1
-11 7 -13 7 -8 -2z"/>
</g>
</svg>
